<svg width="24" height="22" viewBox="0 0 24 22" fill="none" xmlns="http://www.w3.org/2000/svg">
<path d="M12.0066 5.11758C8.88342 5.11758 6.36422 7.52226 6.36422 10.5035C6.36422 13.4848 8.88342 15.8894 12.0066 15.8894C15.1298 15.8894 17.649 13.4848 17.649 10.5035C17.649 7.52226 15.1298 5.11758 12.0066 5.11758ZM12.0066 14.0051C9.98833 14.0051 8.33833 12.4348 8.33833 10.5035C8.33833 8.57226 9.98341 7.00195 12.0066 7.00195C14.0298 7.00195 15.6749 8.57226 15.6749 10.5035C15.6749 12.4348 14.0249 14.0051 12.0066 14.0051ZM19.1959 4.89726C19.1959 5.5957 18.6066 6.15351 17.8798 6.15351C17.1481 6.15351 16.5638 5.59101 16.5638 4.89726C16.5638 4.20351 17.153 3.64101 17.8798 3.64101C18.6066 3.64101 19.1959 4.20351 19.1959 4.89726ZM22.933 6.17226C22.8495 4.48945 22.4468 2.99883 21.1553 1.7707C19.8687 0.542578 18.3071 0.158203 16.5441 0.0738281C14.7272 -0.0246094 9.28118 -0.0246094 7.46422 0.0738281C5.70619 0.153516 4.14458 0.53789 2.85307 1.76601C1.56155 2.99414 1.16378 4.48476 1.07539 6.16757C0.972266 7.90195 0.972266 13.1004 1.07539 14.8348C1.15887 16.5176 1.56155 18.0082 2.85307 19.2363C4.14458 20.4644 5.70128 20.8488 7.46422 20.9332C9.28118 21.0316 14.7272 21.0316 16.5441 20.9332C18.3071 20.8535 19.8687 20.4691 21.1553 19.2363C22.4419 18.0082 22.8446 16.5176 22.933 14.8348C23.0361 13.1004 23.0361 7.90664 22.933 6.17226ZM20.5856 16.6957C20.2026 17.6144 19.4611 18.3223 18.4937 18.6926C17.045 19.241 13.6075 19.1144 12.0066 19.1144C10.4057 19.1144 6.96333 19.2363 5.51958 18.6926C4.55708 18.3269 3.81557 17.6191 3.42762 16.6957C2.85307 15.3129 2.98566 12.0316 2.98566 10.5035C2.98566 8.97539 2.85798 5.68945 3.42762 4.31133C3.81065 3.39258 4.55217 2.68476 5.51958 2.31445C6.96824 1.76601 10.4057 1.89258 12.0066 1.89258C13.6075 1.89258 17.0499 1.7707 18.4937 2.31445C19.4562 2.68008 20.1977 3.38789 20.5856 4.31133C21.1602 5.69414 21.0276 8.97539 21.0276 10.5035C21.0276 12.0316 21.1602 15.3176 20.5856 16.6957Z" fill="white"/>
</svg>
