<svg width="40" height="35" viewBox="0 0 40 35" fill="none" xmlns="http://www.w3.org/2000/svg">
<path d="M17.875 17.5252L0.874979 6.10332C-0.300021 5.31387 -0.300021 4.03731 0.874979 3.25625L3.69998 1.3582C4.87498 0.56875 6.77498 0.56875 7.93748 1.3582L19.9875 9.4543L32.0375 1.3582C33.2125 0.56875 35.1125 0.56875 36.275 1.3582L39.125 3.24785C40.3 4.03731 40.3 5.31387 39.125 6.09492L22.125 17.5168C20.95 18.3147 19.05 18.3146 17.875 17.5252ZM22.125 33.6502L39.125 22.2283C40.3 21.4389 40.3 20.1623 39.125 19.3813L36.3 17.4832C35.125 16.6938 33.225 16.6938 32.0625 17.4832L20 25.5709L7.94998 17.4748C6.77498 16.6854 4.87498 16.6854 3.71248 17.4748L0.874979 19.3729C-0.300021 20.1623 -0.300021 21.4389 0.874979 22.2199L17.875 33.6418C19.05 34.4397 20.95 34.4397 22.125 33.6502Z" fill="white"/>
</svg>
