<svg width="87" height="58" viewBox="0 0 87 58" fill="none" xmlns="http://www.w3.org/2000/svg">
<path d="M84.4108 9.7369C83.9386 9.7369 83.5379 9.89453 83.1802 10.1668V6.12565C83.1802 6.12565 83.1802 6.11132 83.1802 6.09699C83.1802 5.26582 82.7366 4.49199 81.921 4.16239C64.0484 -3.23208 46.8198 2.64337 43.5 3.9331C40.1802 2.64337 22.9659 -3.23208 5.06472 4.16239C4.26339 4.49199 3.77687 5.26582 3.79118 6.09699C3.79118 6.11132 3.79118 6.12565 3.79118 6.12565V10.1668C3.43344 9.89453 3.00416 9.7369 2.56056 9.7369C1.43012 9.7369 0.5 10.654 0.5 11.8005V55.4364C0.5 56.5685 1.41581 57.5 2.56056 57.5H43.271C43.3426 57.5 43.4285 57.4857 43.5 57.4857C43.5715 57.4857 43.6574 57.5 43.7289 57.5H84.4251C85.5699 57.5 86.5 56.5829 86.5 55.4364V11.7861C86.4857 10.654 85.5556 9.7369 84.4108 9.7369ZM4.60682 53.1436C4.73561 53.2439 4.85008 53.3155 5.00749 53.3729H4.60682V53.1436ZM42.3409 53.3729H6.76755C23.8674 46.351 40.8527 52.7853 42.3409 53.3729ZM44.6448 53.3729C46.09 52.7853 63.0611 46.351 80.2181 53.3729H44.6448ZM82.3789 53.1436V53.3729H81.9782C82.1213 53.3155 82.2644 53.2439 82.3789 53.1436ZM79.0734 7.4727V48.5579C64.8497 43.7285 51.4704 46.7952 45.7895 48.5865V7.4727C50.0251 6.011 64.3489 1.94118 79.0734 7.4727ZM41.1819 7.4727V48.5722C35.5153 46.7952 22.1359 43.7285 7.898 48.5579V7.4727C22.6082 1.94118 36.9606 6.02533 41.1819 7.4727Z" fill="#39597C"/>
</svg>
