<svg width="87" height="57" viewBox="0 0 87 57" fill="none" xmlns="http://www.w3.org/2000/svg">
<path fill-rule="evenodd" clip-rule="evenodd" d="M15.2776 0.5H71.8446C79.9081 0.5 86.5056 6.35603 86.5056 13.6218V38.7811C86.5056 46.0469 79.9081 51.9029 71.8446 51.9029H15.2776C7.09186 51.9029 0.494415 46.0469 0.494415 38.7811V13.6218C0.494415 6.35603 7.09186 0.5 15.2776 0.5ZM12.101 5.05469H74.8989C79.2972 5.05469 82.9625 8.30804 82.9625 12.2121V38.7811C82.9625 42.6851 79.2972 45.83 74.8989 45.83H12.101C7.70274 45.83 4.03749 42.6851 4.03749 38.7811V12.2121C4.03749 8.30804 7.70274 5.05469 12.101 5.05469Z" fill="#39597C"/>
<path fill-rule="evenodd" clip-rule="evenodd" d="M22.7303 51.9033H64.2697L68.7902 57.0002H18.2098L22.7303 51.9033Z" fill="#39597C"/>
</svg>
